<svg width="96" height="96" xmlns="http://www.w3.org/2000/svg" xmlns:xlink="http://www.w3.org/1999/xlink" xml:space="preserve" overflow="hidden"><g transform="translate(-37 -296)"><path d="M114 375 114 315C114 309.154 99.059 306 85 306 70.941 306 56 309.154 56 315L56 375C56 380.846 70.941 384 85 384 99.059 384 114 380.846 114 375ZM85 308C100.453 308 112 311.7 112 315 112 318.3 100.453 322 85 322 69.547 322 58 318.3 58 315 58 311.7 69.547 308 85 308ZM58 318.46C62.529 322.08 74.033 324 85 324 95.967 324 107.471 322.08 112 318.46L112 335C112 338.3 100.453 342 85 342 69.547 342 58 338.3 58 335ZM58 338.46C62.529 342.08 74.033 344 85 344 95.967 344 107.471 342.08 112 338.46L112 355C112 358.3 100.453 362 85 362 69.547 362 58 358.3 58 355ZM58 375 58 358.46C62.529 362.08 74.033 364 85 364 95.967 364 107.471 362.08 112 358.46L112 375C112 378.3 100.453 382 85 382 69.547 382 58 378.3 58 375Z"/><path d="M107 332C107 333.105 106.105 334 105 334 103.895 334 103 333.105 103 332 103 330.895 103.895 330 105 330 106.105 330 107 330.895 107 332Z"/><path d="M107 352C107 353.105 106.105 354 105 354 103.895 354 103 353.105 103 352 103 350.895 103.895 350 105 350 106.105 350 107 350.895 107 352Z"/><path d="M107 372C107 373.105 106.105 374 105 374 103.895 374 103 373.105 103 372 103 370.895 103.895 370 105 370 106.105 370 107 370.895 107 372Z"/></g></svg>